<?xml version="1.0" encoding="UTF-8" standalone="no"?>
<!-- Created with Inkscape (http://www.inkscape.org/) -->

<svg
   xmlns:osb="http://www.openswatchbook.org/uri/2009/osb"
   xmlns:dc="http://purl.org/dc/elements/1.1/"
   xmlns:cc="http://creativecommons.org/ns#"
   xmlns:rdf="http://www.w3.org/1999/02/22-rdf-syntax-ns#"
   xmlns:svg="http://www.w3.org/2000/svg"
   xmlns="http://www.w3.org/2000/svg"
   xmlns:xlink="http://www.w3.org/1999/xlink"
   xmlns:sodipodi="http://sodipodi.sourceforge.net/DTD/sodipodi-0.dtd"
   xmlns:inkscape="http://www.inkscape.org/namespaces/inkscape"
   version="1.1"
   width="1005.4"
   height="1005.4"
   id="svg2"
   xml:space="preserve"
   inkscape:version="0.92.3 (2405546, 2018-03-11)"
   sodipodi:docname="Japan_road_sign_foward.svg"><sodipodi:namedview
     pagecolor="#ffffff"
     bordercolor="#666666"
     borderopacity="1"
     objecttolerance="10"
     gridtolerance="10"
     guidetolerance="10"
     inkscape:pageopacity="0"
     inkscape:pageshadow="2"
     inkscape:window-width="1920"
     inkscape:window-height="986"
     id="namedview28"
     showgrid="false"
     fit-margin-top="0.2"
     fit-margin-left="0.2"
     fit-margin-right="0.2"
     fit-margin-bottom="0.2"
     inkscape:zoom="0.5"
     inkscape:cx="314.60309"
     inkscape:cy="491.44086"
     inkscape:window-x="-11"
     inkscape:window-y="-11"
     inkscape:window-maximized="1"
     inkscape:current-layer="svg2" /><metadata
     id="metadata8"><rdf:RDF><cc:Work
         rdf:about=""><dc:format>image/svg+xml</dc:format><dc:type
           rdf:resource="http://purl.org/dc/dcmitype/StillImage" /></cc:Work></rdf:RDF></metadata><defs
     id="defs6"><linearGradient
       id="linearGradient15703"
       osb:paint="solid"><stop
         style="stop-color:#ffffff;stop-opacity:1;"
         offset="0"
         id="stop15705" /></linearGradient><linearGradient
       inkscape:collect="always"
       xlink:href="#linearGradient15703"
       id="linearGradient15707"
       x1="-37.125"
       y1="465.375"
       x2="967.87512"
       y2="465.375"
       gradientUnits="userSpaceOnUse"
       gradientTransform="translate(37.325,37.325)" /></defs><path
     inkscape:connector-curvature="0"
     style="fill:url(#linearGradient15707);fill-opacity:1;stroke:#000000;stroke-width:5;stroke-miterlimit:4;stroke-opacity:1;stroke-dasharray:none"
     d="m 1002.7001,502.7 c 0,-276.1424 -223.85772,-500 -500.0001,-500 -276.14238,0 -500,223.8576 -500,500 0,276.1423 223.85762,500.0001 500,500.0001 276.14238,0 500.0001,-223.8578 500.0001,-500.0001 z"
     id="path3854" /><path
     style="fill:#020202;fill-opacity:1;stroke:#000000;stroke-opacity:1"
     d="M 502.69922 37.324219 C 245.67964 37.324219 37.324219 245.67962 37.324219 502.69922 C 37.324219 759.71882 245.67964 968.07422 502.69922 968.07422 C 759.71874 968.07422 968.07422 759.71882 968.07422 502.69922 C 968.07422 245.67962 759.71874 37.324219 502.69922 37.324219 z M 502.65039 89.263672 C 503.84462 89.258772 505.03514 90.016762 505.96289 91.576172 L 680.99219 389.10547 C 692.8358 414.84559 704.76065 438.64128 688.92969 454.51172 C 673.05925 470.38216 647.27635 456.43871 637.36719 448.54297 C 627.49752 440.60775 564.14844 395.01172 564.14844 395.01172 L 564.14844 909.63672 C 564.14844 913.1898 561.14725 916.13672 557.55469 916.13672 L 447.8457 916.13672 C 444.25314 916.13672 441.25195 913.1898 441.25195 909.63672 L 441.25195 395.01172 C 441.25195 395.01172 377.90287 440.60775 368.0332 448.54297 C 358.12404 456.43871 332.34114 470.38216 316.4707 454.51172 C 300.63974 438.64128 312.56459 414.84559 324.4082 389.10547 L 499.33789 91.576172 C 500.26564 90.016762 501.45616 89.258737 502.65039 89.263672 z "
     id="path14622" /><g
     inkscape:groupmode="layer"
     id="layer1"
     inkscape:label="Layer 1" /><g
     inkscape:groupmode="layer"
     id="layer2"
     inkscape:label="Layer 2" /></svg>