<svg height='300px' width='300px'  fill="#000000" xmlns="http://www.w3.org/2000/svg" xmlns:xlink="http://www.w3.org/1999/xlink" version="1.1" x="0px" y="0px" viewBox="0 0 100 100" enable-background="new 0 0 100 100" xml:space="preserve"><path fill-rule="evenodd" clip-rule="evenodd" d="M71.692,13.18c0.217,0.25,0.405,0.541,0.661,0.74  c0.135,0.104,0.4,0.101,0.586,0.06c0.379-0.084,0.933,0.297,0.885,0.674c-0.01,0.079-0.151,0.141-0.231,0.211  c0.023,0.042,0.046,0.082,0.068,0.124c0.163-0.096,0.325-0.191,0.489-0.29c0.21,0.11,0.451,0.236,0.731,0.386  c0.017,0.056,0.011,0.244,0.099,0.318c0.601,0.495,1.222,0.967,1.836,1.445c-0.026,0.037-0.055,0.076-0.082,0.112  c-0.09-0.022-0.177-0.044-0.389-0.101c0.129,0.292,0.223,0.503,0.315,0.714c0.15-0.138,0.303-0.273,0.489-0.444  c0.459,0.458,0.957,0.956,1.468,1.468c-0.079,0.166-0.139,0.297-0.214,0.455c0.501-0.039,0.836,0.07,1.099,0.503  c0.152,0.253,0.269,0.72,0.769,0.593c0.003,0,0.025,0.082,0.044,0.124c0.059,0.148,0.077,0.356,0.187,0.43  c0.644,0.427,0.934,1.141,1.414,1.698c0.494,0.58,0.987,1.159,1.46,1.755c0.24,0.303,0.423,0.652,0.651,0.967  c0.132,0.174,0.303,0.32,0.404,0.427c0.146,0.32,0.277,0.599,0.401,0.883c0.107,0.242,0.205,0.486,0.319,0.726  c0.031,0.067,0.114,0.107,0.165,0.169c0.907,1.105,1.368,2.435,1.891,3.737c0.216,0.531,0.452,1.054,0.668,1.586  c0.105,0.255,0.331,0.577,0.256,0.773c-0.259,0.681,0.207,1.254,0.177,1.89c-0.014,0.318-0.034,0.63,0.253,0.917  c0.118,0.115-0.016,0.486-0.032,0.742c-0.019,0.239-0.119,0.52-0.03,0.714c0.267,0.596,0.345,1.125-0.108,1.682  c-0.114,0.14-0.017,0.452-0.017,0.691c-0.062,0.096-0.229,0.239-0.21,0.346c0.112,0.596-0.176,1.221,0.139,1.794  c0.014,0.025,0.006,0.081-0.013,0.095c-0.597,0.473-0.041,1.055-0.15,1.575c-0.088,0.414-0.133,0.835-0.243,1.243  c-0.023,0.087-0.244,0.121-0.49,0.231c0.034,0.241,0.126,0.562,0.109,0.882c-0.015,0.262-0.157,0.515-0.239,0.773  c-0.036,0.112-0.063,0.23-0.069,0.256c-0.188,0.017-0.361,0.034-0.537,0.051c-0.003,0.037-0.007,0.073-0.01,0.112  c0.092,0.051,0.183,0.099,0.312,0.168c-0.095,0.107-0.218,0.189-0.261,0.301c-0.09,0.233-0.195,0.486-0.189,0.729  c0.007,0.264,0.163,0.469-0.166,0.725c-0.18,0.141-0.146,0.627-0.12,0.951c0.112,1.457,0.159,2.896-0.002,4.364  c-0.169,1.529-0.249,3.062,0.094,4.634c0.442,2.021,0.575,4.111,0.309,6.188c-0.098,0.777-0.229,1.553-0.432,2.304  c-0.16,0.593-0.51,1.135-0.673,1.729c-0.332,1.212-1.053,2.218-1.659,3.28c-0.318,0.558-0.878,0.977-1.324,1.463  c-0.05,0.053-0.077,0.136-0.104,0.208c-0.018,0.042,0.003,0.112-0.023,0.138c-0.503,0.506-1.006,1.013-1.518,1.51  c-0.112,0.11-0.261,0.183-0.375,0.29c-0.1,0.095-0.155,0.233-0.259,0.317c-0.551,0.438-1.07,0.937-1.678,1.282  c-1.05,0.599-1.953,1.395-2.963,2.044c-0.801,0.516-1.311,1.299-1.376,2.328c-0.028,0.437-0.244,0.86-0.369,1.295  c-0.029,0.092-0.042,0.189-0.06,0.283c0.039,0.033,0.078,0.064,0.118,0.096c0.052-0.09,0.106-0.18,0.159-0.271  c0.038,0.009,0.075,0.017,0.113,0.025c-0.16,0.937-0.31,1.87-0.48,2.802c-0.123,0.674-0.213,1.362-0.43,2.007  c-0.179,0.534-0.536,1.006-0.791,1.516c-0.16,0.323-0.207,0.723-0.422,0.995c-0.566,0.72-1.158,1.431-1.816,2.066  c-0.479,0.462-1.084,0.788-1.615,1.193c-0.188,0.146-0.294,0.438-0.493,0.518c-0.387,0.148-0.819,0.162-1.214,0.285  c-1.882,0.591-3.701,0.208-5.453-0.457c-1.865-0.709-3.53-1.803-5.084-3.052c-0.712-0.567-1.347-1.239-2.087-1.766  c-0.289-0.208-0.771-0.146-1.165-0.208c-1.329-0.21-2.668-0.343-3.918-0.917c-0.913-0.418-1.904-0.672-2.807-1.107  c-1.237-0.599-2.445-1.269-3.623-1.974c-0.919-0.551-1.79-1.187-2.655-1.822c-2.934-2.15-5.88-4.283-8.77-6.493  c-1.933-1.476-3.794-3.048-5.65-4.622c-1.321-1.122-2.618-2.28-3.855-3.492c-1.274-1.249-2.526-2.528-3.672-3.895  c-1.434-1.701-2.78-3.486-3.776-5.491c-0.571-1.145-1.254-2.241-1.548-3.518c-0.122-0.529-0.436-1.013-0.651-1.521  c-0.042-0.099-0.031-0.219-0.005-0.346c0.17,0.464,0.827,0.587,0.798,1.192c-0.003,0.045,0.236,0.102,0.363,0.152  c0.024-0.053,0.048-0.109,0.073-0.163c-0.057-0.042-0.159-0.082-0.163-0.132c-0.03-0.264-0.011-0.762-0.056-0.768  c-0.433-0.047-0.376-0.337-0.393-0.621c-0.006-0.082-0.122-0.158-0.282-0.349c0.042,0.27,0.059,0.391,0.08,0.529  c-0.172,0.014-0.319,0.028-0.465,0.037c-0.539-0.894-1.091-3.349-0.84-3.765c0.093,0.264,0.186,0.529,0.301,0.86  c0.014-0.011-0.063,0.05-0.109,0.087c0.104,0.334,0.201,0.655,0.3,0.976c0.096,0.301,0.125,0.655,0.311,0.88  c0.123,0.152,0.471,0.119,0.655,0.155c-0.056-0.318-0.139-0.529-0.122-0.731c0.042-0.475,0.078-0.916-0.375-1.25  c-0.082-0.059-0.011-0.321-0.011-0.357c-0.236-0.225-0.422-0.402-0.614-0.584c0.623-0.549,0.804-0.509,1,0.154  c0.306,1.04,0.534,2.112,0.927,3.116c0.574,1.468,1.249,2.896,1.913,4.327c0.406,0.88,0.868,1.729,1.308,2.593  c0.014,0.03,0.036,0.059,0.059,0.084c0.478,0.568,0.96,1.131,1.434,1.701c0.118,0.141,0.216,0.299,0.355,0.498  c-0.129,0.014-0.209,0.022-0.311,0.036c0.938,0.507,1.431,1.372,2.078,2.25c-0.037-0.007,0.104-0.025,0.164,0.033  c0.427,0.436,0.833,0.894,1.254,1.334c0.224,0.232,0.595,0.376,0.395,0.884c0.485-0.237,0.519,0.149,0.721,0.363  c0.276,0.296,0.656,0.489,1.075,0.788c-0.229,0.033-0.342,0.053-0.444,0.067c0.261,0.132,0.532,0.268,0.827,0.416  c-0.108,0.082-0.169,0.126-0.228,0.172c0.032,0.048,0.044,0.072,0.052,0.07c0.435-0.033,0.622,0.348,0.908,0.551  c0.5,0.354,1.034,0.641,1.425,1.175c0.25,0.341,0.646,0.813,1.34,0.633c-0.15-0.239-0.285-0.441-0.412-0.649  c-0.191-0.314-0.405-0.621-0.562-0.952c-0.228-0.488-0.433-0.985-0.614-1.488c-0.103-0.284-0.163-0.588-0.206-0.889  c-0.21-1.444-0.444-2.888-0.17-4.355c0.365-1.966,1.221-3.7,2.382-5.3c0.349-0.481,0.842-0.878,1.101-1.398  c0.312-0.627,0.449-1.341,0.653-2.021c0.075-0.245,0.09-0.518,0.206-0.737c0.205-0.391,0.039-0.52-0.303-0.681  c-0.988-0.458-1.96-0.939-2.728-1.771c-0.529-0.571-0.791-1.206-0.838-1.966c-0.093-1.585,0.176-3.124,0.654-4.623  c0.286-0.905,0.658-1.783,1.015-2.663c0.161-0.391,0.381-0.759,0.565-1.142c0.024-0.056-0.008-0.149-0.028-0.222  c-0.378-1.316-1.325-2.328-1.884-3.545c-1.07-2.334-2.121-4.676-2.426-7.261c-0.18-1.541-0.277-3.09,0.07-4.631  c0.255-1.119,0.391-2.28,0.761-3.36c0.569-1.667,1.651-2.997,3.012-4.142c1.259-1.06,2.736-1.625,4.236-2.17  c0.457-0.167,0.963-0.226,1.452-0.262c0.421-0.031,0.68-0.149,0.869-0.565c0.222-0.486,0.534-0.939,0.863-1.364  c0.843-1.094,1.659-2.218,2.598-3.228c0.85-0.911,1.777-1.786,2.799-2.488c1.066-0.731,2.268-1.276,3.444-1.833  c1.669-0.79,3.444-1.31,5.277-1.442c2.086-0.149,4.193-0.31,6.257,0.332c0.854,0.267,1.752,0.388,2.619,0.604  c0.379,0.096,0.737,0.27,1.107,0.4c0.275,0.096,0.556,0.182,0.836,0.258c0.632,0.169,1.229,0.391,1.717,0.86  c0.097,0.093,0.314,0.048,0.454,0.112c0.626,0.29,1.244,0.597,1.879,0.9c0.11,0.014,0.282-0.015,0.396,0.056  c0.277,0.174,0.602,0.343,0.771,0.602c0.237,0.368,0.536,0.537,0.931,0.664c0.125,0.039,0.177,0.315,0.327,0.613  c0.026-0.228,0.036-0.318,0.06-0.5c0.174,0.087,0.345,0.149,0.493,0.25c0.324,0.217,0.453,0.759,1.036,0.545  c0.105-0.037,0.32,0.225,0.485,0.346c-0.018,0.039-0.037,0.078-0.054,0.115c-0.215,0-0.431,0-0.645,0  c-0.008,0.04-0.016,0.078-0.023,0.115c0.192,0.124,0.384,0.248,0.635,0.408c0.097-0.18,0.188-0.349,0.28-0.518  c0.565,0.301,0.896,0.866,0.635,1.133c0.304,0.303,0.417-0.06,0.603-0.166c0.076-0.042,0.213-0.115,0.238-0.09  c0.24,0.242,0.462,0.503,0.693,0.762l0.014-0.008c-0.256,0.04-0.513,0.079-0.923,0.141c0.434,0.197,0.755,0.343,1.075,0.489  C71.654,13.172,71.679,13.178,71.692,13.18z M18.982,64.916c0.083,0.424,0.329,0.709,0.781,0.896  c0.04-0.233,0.072-0.433,0.082-0.486c-0.36-0.163-0.616-0.281-0.875-0.399c-0.394-0.537-0.691-1.191-1.442-1.245  c0.342,0.349,0.689,0.719,1.059,1.068C18.684,64.843,18.85,64.859,18.982,64.916z M14.216,58.955  c0.203-0.062,0.403-0.127,0.686-0.214c-0.141-0.2-0.279-0.397-0.415-0.591c0.007-0.138,0.061-0.295,0.012-0.407  c-0.148-0.332-0.469-0.562-0.315-1.047c0.049-0.154-0.44-0.483-0.752-0.806c-0.02,0.278-0.034,0.45-0.047,0.635  c-0.062-0.068-0.11-0.118-0.158-0.169c-0.034,0.031-0.067,0.064-0.102,0.096c0.149,0.154,0.301,0.31,0.354,0.362  c-0.017,0.211-0.058,0.332-0.029,0.433c0.043,0.158,0.15,0.293,0.198,0.448c0.197,0.632,0.219,0.648,0.847,0.449  c-0.093,0.271-0.186,0.54-0.275,0.811c0.16,0.098,0.334,0.183,0.478,0.304c0.067,0.053,0.135,0.202,0.107,0.267  c-0.155,0.349,0.135,0.521,0.323,0.555c0.16,0.03,0.37-0.191,0.558-0.305c-0.01-0.064-0.021-0.126-0.029-0.191  C15.174,59.376,14.695,59.165,14.216,58.955z M30.568,45.641c-0.023,0.475-0.047,0.953-0.072,1.468  c0.16-0.054,0.337-0.113,0.528-0.177c-0.162-0.447-0.314-0.863-0.466-1.282c-0.054-0.295-0.107-0.59-0.153-0.855  c-0.219-0.017-0.383-0.031-0.668-0.053c0.129,0.45,0.264,0.914,0.392,1.364C30.292,45.933,30.432,45.787,30.568,45.641z   M58.387,53.55c-0.264-0.104-0.529-0.211-0.922-0.366c-0.418,0.18-1.008,0.436-1.652,0.712c0.223,0.261,0.319,0.514,0.629,0.261  c0.075-0.065,0.225-0.073,0.335-0.06c0.576,0.071,1.149,0.178,1.729,0.226c0.262,0.022,0.627,0.062,0.556-0.419  c-0.225-0.122-0.449-0.239-0.672-0.357c0.039-0.155,0.081-0.307,0.127-0.472c0.264,0.076,0.487,0.141,0.712,0.205  c0.315-1.085,0.311-1.237-0.108-1.561c-0.228,0.272-0.454,0.548-0.683,0.824c0.183,0.112,0.364,0.225,0.555,0.34  C58.123,52.896,58.123,52.896,58.387,53.55z M85.938,46.51c0.003-0.006,0.036-0.048,0.052-0.096  c0.052-0.144,0.113-0.287,0.139-0.436c0.312-1.811,0.701-3.613,0.909-5.436c0.427-3.723-0.167-7.305-1.769-10.705  c-1.681-3.568-4.011-6.695-6.694-9.552c-1.316-1.403-2.737-2.713-4.187-3.981c-2.943-2.581-6.151-4.797-9.603-6.661  c-2.224-1.201-4.527-2.222-6.953-2.925c-3.071-0.889-6.197-1.167-9.36-0.624c-2.525,0.433-4.83,1.414-6.911,2.921  c-2.01,1.454-3.637,3.265-5.02,5.309c-0.27,0.394-0.511,0.804-0.809,1.283c1.393,0.087,2.667,0.151,3.842,0.86  c-0.049-0.149-0.073-0.222-0.121-0.371c0.523,0.349,0.993,0.664,1.477,0.984c0-0.112,0-0.205,0-0.324  c0.171,0.062,0.31,0.11,0.508,0.183c-0.048-0.121-0.075-0.188-0.122-0.309c0.559,0.186,1.077,0.343,1.422,0.899  c0.152,0.02,0.383,0.042,0.608,0.087c0.28,0.056,0.646,0.042,0.825,0.214c0.389,0.376,0.353,0.402,0.879,0.458  c0.162,0.017,0.314,0.152,0.464,0.244c0.182,0.112,0.362,0.346,0.53,0.335c0.449-0.031,0.777,0.025,0.932,0.512  c0.03,0.095,0.211,0.191,0.328,0.202c1.021,0.09,1.352,0.512,1.063,1.566c0.242-0.129,0.403-0.214,0.564-0.298  c-0.051-0.093-0.103-0.186-0.235-0.419c0.608,0.281,1.129,0.438,1.506,0.874c0.176,0.203,0.223,0.352-0.123,0.402  c-0.072,0.011-0.13,0.107-0.196,0.166c0.067,0.056,0.124,0.138,0.201,0.168c0.356,0.149,0.602,0.065,0.636-0.425  c0.33,0.273,0.453,0.694,0.907,0.681c0.067,0,0.188,0.242,0.19,0.371c0.003,0.076-0.186,0.155-0.393,0.31  c0.249,0.202,0.517,0.438,0.804,0.641c0.042,0.031,0.25,0.419,0.3-0.025c0.144,0.073,0.29,0.141,0.427,0.222  c0.048,0.028,0.071,0.096,0.129,0.177c-0.15-0.008-0.246-0.014-0.342-0.022c-0.028,0.042-0.058,0.082-0.087,0.121  c0.274,0.216,0.549,0.431,0.851,0.669c0.041-0.135,0.063-0.206,0.086-0.281c0.191,0.149,0.374,0.292,0.593,0.461  c-0.017-0.22-0.03-0.375-0.041-0.532c0.153,0.11,0.194,0.259,0.267,0.391c0.056,0.104,0.135,0.217,0.232,0.275  c0.094,0.059,0.224,0.054,0.338,0.077c-0.06,0.092-0.118,0.182-0.153,0.241c0.227,0.121,0.529,0.178,0.589,0.329  c0.266,0.678,0.693,1.13,1.405,1.313c0.085,0.023,0.168,0.11,0.229,0.183c0.225,0.259,0.479,0.309,0.821,0.25  c1.408-0.25,2.813-0.577,4.232-0.667c1.903-0.118,3.765,0.107,5.558,0.945c1.86,0.869,3.403,2.044,4.582,3.72  c0.157,0.225,0.407,0.391,0.639,0.551c0.531,0.369,1.137,0.649,1.6,1.085c0.919,0.864,1.957,1.491,3.103,2  c0.8,0.357,1.605,0.802,2.25,1.381c1.101,0.99,2.286,1.917,3.059,3.23c0.471,0.805,1.1,1.533,1.459,2.379  C84.96,43.518,85.408,45.008,85.938,46.51z M55.511,27.636c-0.054-0.104-0.069-0.155-0.102-0.191  c-2.106-2.224-4.454-4.159-7.001-5.854c-2.12-1.409-4.355-2.587-6.752-3.467c-1.883-0.692-3.793-1.176-5.803-1.328  c-0.726-0.053-1.023,0.236-1.281,0.785c-0.556,1.178-1.158,2.334-1.675,3.529c-0.492,1.136-0.949,2.291-1.324,3.47  c-0.366,1.144-0.607,2.328-0.901,3.495c-0.188,0.751-0.423,1.494-0.544,2.252c-0.133,0.81-0.146,1.636-0.225,2.452  c-0.039,0.396-0.107,0.784-0.175,1.262c-0.187-0.253-0.307-0.421-0.387-0.531c-0.229,0.239-0.403,0.419-0.583,0.607  c0.223,0.059,0.446,0.118,0.742,0.194c-0.271,0.152-0.445,0.253-0.622,0.352c0.047,0.064,0.094,0.129,0.14,0.194  c0.238-0.188,0.474-0.377,0.694-0.552c-0.032,1.904-0.069,3.833,0.192,5.748c0.057,0.005,0.113,0.014,0.168,0.022  c0.106-0.205,0.215-0.411,0.321-0.616c0.15-0.233,0.447-0.382,0.715-0.574c0.791-0.567,1.562-1.167,2.361-1.72  c0.127-0.087,0.381-0.04,0.554,0.011c0.07,0.022,0.091,0.219,0.139,0.343c-0.118,0.037-0.166,0.065-0.214,0.065  c-0.423-0.006-0.928-0.146-0.832,0.596c0.011,0.084-0.17,0.2-0.271,0.29c-0.225,0.194-0.468,0.366-0.68,0.571  c-0.275,0.267-0.543,0.546-0.781,0.843c-0.287,0.363-0.609,0.72-0.777,1.136c-0.069,0.171,0.224,0.486,0.344,0.742  c0.085,0.175,0.158,0.36,0.229,0.529c-0.337-0.208-0.658-0.405-0.979-0.602c-0.015,0.152,0.021,0.245,0.085,0.312  c0.199,0.214,0.48,0.382,0.595,0.633c0.108,0.236,0.048,0.554,0.067,0.95c0.256-0.188,0.483-0.354,0.747-0.548  c0.23,0.365,0.521,0.821,0.786,1.24c-0.138-0.017-0.324-0.037-0.512-0.056c-0.013,0.056-0.027,0.109-0.039,0.166  c0.254,0.065,0.509,0.132,0.832,0.214c0.03,0.048,0.115,0.169,0.193,0.284c-0.144,0.056-0.277,0.107-0.39,0.152  c-0.143-0.112-0.273-0.216-0.51-0.408c0.084,0.655,0.399,0.768,0.831,0.723c0,0.112,0,0.214,0,0.315  c0.72-0.953,1.359-1.935,1.975-2.936c0.645-1.049,1.248-2.126,1.901-3.172c0.459-0.734,0.91-1.49,1.479-2.14  c0.936-1.065,1.937-2.081,2.961-3.062c0.864-0.827,1.752-1.642,2.716-2.342c0.912-0.666,1.942-1.164,2.905-1.763  c0.153-0.096,0.276-0.31,0.326-0.493c0.094-0.334,0.083-0.7,0.573-0.725c0.216-0.012,0.429-0.104,0.745-0.186  c-0.216-0.16-0.354-0.272-0.503-0.374c-1.395-0.942-2.809-1.862-4.184-2.837c-0.661-0.47-1.273-1.021-1.855-1.589  c-0.36-0.354-0.31-0.908,0.03-1.181c0.813-0.646,1.793-0.908,2.775-0.807c1.223,0.121,2.424,0.45,3.464,1.197  c0.543,0.389,1.214,0.627,1.676,1.086c0.918,0.908,1.74,1.917,2.584,2.898c0.147,0.172,0.184,0.431,0.312,0.625  c0.076,0.113,0.246,0.261,0.349,0.245C53.901,27.979,54.681,27.808,55.511,27.636z M67.25,85.051  c-0.591,0.197-1.079,0.308-1.521,0.521c-0.714,0.34-1.396,0.75-2.089,1.133c-0.042,0.021-0.104,0.075-0.101,0.106  c0.056,0.422-0.352,0.318-0.537,0.447c-0.203,0.141-0.49,0.157-0.735,0.247c-0.27,0.102-0.53,0.225-0.725,0.308  c-0.877,0.753-1.828,1.175-3.052,1.208c0.17,0.124,0.219,0.158,0.305,0.22c-0.738,0.04-1.377,0.562-2.111,0.259  c-0.153,0.133-0.302,0.256-0.555,0.47c0.157,0.106,0.309,0.188,0.439,0.298c1.441,1.203,3.001,2.24,4.694,3.034  c1.596,0.747,3.299,1.104,5.065,0.739c2.145-0.444,3.598-1.834,4.737-3.607c1.074-1.676,1.459-3.58,1.746-5.509  c0.042-0.284,0.062-0.57,0.055-0.855c-0.001-0.078-0.125-0.19-0.215-0.216c-0.057-0.017-0.169,0.081-0.226,0.151  c-0.247,0.302-0.447,0.645-0.729,0.9c-0.497,0.455-0.987,0.971-1.58,1.251c-0.834,0.397-1.663,0.948-2.715,0.605  c-0.413-0.136-0.465-0.324-0.408-0.65C67.046,85.802,67.139,85.498,67.25,85.051z M27.657,36.345  c0.263,0.376,0.463,0.664,0.679,0.976c0.229-0.72,0.229-0.72,1.15-1.47c-0.182-0.11-0.356-0.211-0.612-0.366  c0,0.287,0,0.486,0,0.683c-0.357-0.037-0.562-0.363-0.337-0.565c0.207-0.186,0.378-0.248,0.027-0.45  c-0.053-0.031,0.048-0.334,0.094-0.509c0.011-0.042,0.083-0.068,0.129-0.101c-0.363-0.389-0.094-0.824-0.092-1.24  c0.001-0.323,0.16-0.363,0.429-0.25c0.069,0.028,0.233,0,0.245-0.037c0.036-0.121,0.043-0.258,0.02-0.385  c-0.007-0.028-0.175-0.05-0.263-0.04c-0.087,0.015-0.168,0.077-0.312,0.146c-0.009-0.185-0.032-0.315-0.019-0.441  c0.219-1.971,0.559-3.922,1.116-5.826c0.45-1.536,0.915-3.068,1.46-4.573c0.362-1.004,0.877-1.951,1.318-2.927  c0.305-0.675,0.599-1.358,0.944-2.146c-0.62,0.135-1.077,0.206-1.516,0.332c-3.033,0.877-4.991,2.888-5.867,5.877  c-1.141,3.889-0.808,7.718,0.728,11.458c0.228,0.554,0.438,1.113,0.658,1.673c-0.146,0.002-0.206-0.042-0.256-0.096  c-0.062-0.065-0.112-0.141-0.168-0.211c-0.04,0.025-0.079,0.05-0.121,0.073c0.144,0.287,0.289,0.577,0.432,0.864  c0.045-0.02,0.09-0.04,0.133-0.062C27.657,36.637,27.657,36.542,27.657,36.345z M49.65,50.021c0.326,0.118,0.622,0.222,0.92,0.329  c0.322,0.121,0.639,0.275,0.973,0.354c0.296,0.07,0.613,0.034,0.917,0.082c0.368,0.062,0.728,0.163,1.094,0.239  c0.428,0.087,0.646-0.102,0.769-0.521c0.307-1.049,0.72-2.066,0.859-3.166c0.177-1.4,0.401-2.795,0.575-4.195  c0.029-0.239-0.046-0.518-0.151-0.743c-0.175-0.382-0.424-0.734-0.624-1.108c-0.172-0.32-0.355-0.441-0.73-0.247  c-1.558,0.801-3.142,1.554-4.69,2.373c-0.729,0.382-1.397,0.877-2.012,1.268c0.065,0.382,0.111,0.644,0.171,0.987  c0.005,0.003,0.123,0.062,0.261,0.132c-0.078,0.09-0.136,0.158-0.219,0.256c0.123,0.031,0.21,0.054,0.339,0.087  c-0.174,0.298-0.157,0.489,0.243,0.582c0.191,0.045,0.333,0.293,0.497,0.45c-0.166,0.174-0.278,0.295-0.473,0.5  c0.726-0.216,0.635,0.242,0.644,0.568c0.13,0.042,0.254,0.048,0.321,0.109c0.105,0.099,0.148,0.278,0.263,0.343  c0.282,0.163,0.347,0.408,0.181,0.63C49.586,49.585,49.631,49.83,49.65,50.021z M83.719,52.167c1.144-1.586,1.401-3.295,0.867-5.101  c-0.511-1.72-0.854-3.509-1.875-5.047c-0.339-0.509-0.496-1.158-0.894-1.605c-0.897-1.01-1.862-1.971-2.862-2.882  c-0.465-0.422-1.078-0.683-1.596-1.001c0.502,1.575,1.082,3.082,1.452,4.64c0.406,1.698,0.561,3.444,0.449,5.207  c-0.019,0.293,0.218,0.647,0.426,0.9c0.508,0.607,1.099,1.15,1.601,1.763C82.111,50.052,82.894,51.101,83.719,52.167z   M65.132,77.642c-0.002,0.012,0.024,0.226-0.068,0.31c-0.764,0.692-1.559,1.35-2.327,2.036c-0.168,0.151-0.241,0.425-0.42,0.552  c-0.42,0.292-0.856,0.595-1.332,0.778c-0.48,0.183-0.545,0.515-0.587,0.941c2.013,0.479,4.001,0.492,6.01,0.195  c0.612-0.091,1.04-0.387,1.27-0.9c0.11-0.245,0.075-0.628-0.048-0.872c-0.089-0.184-0.213-0.146-0.075-0.292  c0.266-0.281,0.134-0.402-0.16-0.476c0.077-0.223,0.154-0.443,0.256-0.742c0.112,0.733,0.213,1.403,0.332,2.188  c1.554-1.893,2.825-3.773,3.513-5.983c0.272-0.88,0.5-1.795,0.245-2.793c-0.668,0.549-1.384,0.815-2.273,0.934  c-0.055,0.046-0.23,0.158-0.373,0.302c-0.48,0.486-0.915,1.022-1.436,1.462c-0.37,0.315-0.512,0.638-0.419,1.094  c0.007,0.034-0.021,0.076-0.053,0.172c-0.092-0.154-0.152-0.256-0.256-0.433c-0.135,0.241-0.236,0.418-0.386,0.683  c-0.239,0.06-0.688,0.008-0.857,0.546C65.648,77.465,65.381,77.515,65.132,77.642z M76.96,62.765c0.677-0.88,1.298-1.65,1.873-2.455  c0.427-0.593,0.783-1.234,1.183-1.847c0.382-0.588,0.892-1.077,1.204-1.729c0.396-0.821,0.912-1.586,1.366-2.379  c0.069-0.126,0.139-0.295,0.112-0.425c-0.354-1.774-2.018-3.104-3.802-3.062c-0.249,0.006-0.319,0.082-0.336,0.366  c-0.026,0.447-0.031,0.953-0.529,1.201c0.146,0.681-0.089,1.316-0.618,1.656c0.076,0.062,0.143,0.119,0.143,0.119  c-0.098,0.199-0.239,0.363-0.245,0.529c-0.02,0.52-0.295,0.896-0.609,1.265c-0.11,0.126-0.229,0.261-0.291,0.414  c-0.252,0.651-0.507,1.308-0.716,1.976c-0.062,0.2,0.02,0.442,0.036,0.664c0.05-0.005,0.103-0.011,0.154-0.017  c-0.03-0.18-0.062-0.357-0.091-0.537c0.049-0.012,0.098-0.02,0.147-0.031C76.271,59.854,76.6,61.241,76.96,62.765z M54.12,79.104  c0.026,0.039,0.047,0.09,0.081,0.121c1.286,1.057,2.712,1.878,4.274,2.455c0.14,0.05,0.375-0.017,0.511-0.11  c0.798-0.549,1.613-1.083,2.364-1.692c1.092-0.886,2.149-1.816,3.194-2.761c0.648-0.586,1.246-1.23,1.867-1.846  c-0.022-0.05-0.047-0.098-0.068-0.148c-0.258,0.075-0.632,0.069-0.752,0.241c-6.121,0.261-0.733,0.537-1.223,0.537  c-0.819-0.006-1.483,0.613-2.376,0.492c-0.821-0.112-1.681,0.054-2.521,0.11c-0.23,0.013-0.476,0.027-0.683,0.114  c-0.385,0.163-0.749,0.377-1.119,0.576C56.497,77.822,55.326,78.454,54.12,79.104z M76.018,78.115  c0.039,0.042,0.078,0.081,0.118,0.12c0.102-0.054,0.206-0.099,0.301-0.16c2.387-1.583,4.423-3.531,6.079-5.868  c1.929-2.722,2.944-5.738,2.887-9.085c-0.015-0.765-0.107-1.53-0.164-2.292c-0.28,0.711-0.447,1.414-0.688,2.09  c-0.269,0.753-0.607,1.48-0.909,2.224c-0.179,0.434-0.314,0.885-0.516,1.307c-0.411,0.861-0.854,1.707-1.283,2.56  c-0.139,0.272-0.19,0.613-0.322,0.853c-0.61,1.116-1.303,2.19-1.992,3.264c-0.216,0.337-0.658,0.594-0.737,0.942  c-0.182,0.82-0.881,1.257-1.256,1.926C77.112,76.748,76.528,77.411,76.018,78.115z M82.979,56.264  c-0.263,0.259-0.509,0.447-0.688,0.689c-0.292,0.385-0.551,0.792-0.796,1.209c-0.095,0.16-0.317,0.002-0.411,0.334  c-0.159,0.56-0.611,1.04-0.943,1.553c-0.105,0.16-0.236,0.309-0.325,0.48c-0.122,0.236-0.164,0.531-0.328,0.729  c-0.479,0.585-0.998,1.133-1.533,1.727c0.184,0.067,0.245,0.09,0.423,0.157c-0.25,0.081-0.381,0.121-0.509,0.163  c0.065,0.057,0.132,0.115,0.223,0.193c-0.673,0.102-0.935,0.476-0.847,1.105c0.063,0.452,0.102,0.909,0.147,1.36  c0.069,0.684,0.135,1.367,0.204,2.067c4.035-2.733,6.196-8.97,5.655-12.316c-0.136,0.138-0.27,0.276-0.411,0.418  C82.894,56.185,82.965,56.249,82.979,56.264z M68.45,46.206c-0.062-0.005-0.126-0.011-0.188-0.02  c-0.254,0.562-0.494,1.127-0.763,1.682c-0.398,0.826-0.824,1.636-1.223,2.463c-0.184,0.379-0.268,0.826-0.511,1.158  c-0.425,0.579-0.938,1.091-1.106,1.825c-0.017,0.076-0.143,0.126-0.196,0.202c-0.335,0.464-0.664,0.934-1.013,1.426  c0.323,0.185,0.537,0.309,0.751,0.433c-0.009,0.022-0.017,0.048-0.025,0.07c-0.226-0.07-0.45-0.144-0.675-0.214  c-0.029,0.034-0.057,0.065-0.085,0.099c0.083,0.124,0.139,0.287,0.252,0.363c0.697,0.472,1.399,0.934,2.119,1.367  c0.106,0.064,0.356,0.027,0.455-0.06c0.804-0.694,1.496-1.448,1.656-2.583c0.094-0.661,0.481-1.237,0.489-1.968  c0.014-1.215,0.29-2.427,0.323-3.645C68.735,47.94,68.546,47.072,68.45,46.206z M62.548,53.483c0.058,0,0.11,0.003,0.165,0.005  c0.201-0.315,0.406-0.627,0.604-0.944c1.597-2.556,2.809-5.281,3.745-8.149c0.352-1.079,0.078-1.811-0.707-2.449  c-0.289-0.233-0.683-0.335-1.139-0.548c0.159,1.496-0.165,2.702-0.638,3.928c-0.46,1.189-1.193,2.162-1.952,3.132  c-0.336,0.43-0.431,0.844-0.382,1.361c0.101,1.021,0.156,2.047,0.234,3.07C62.492,53.086,62.526,53.283,62.548,53.483z   M29.43,58.963c-0.066-0.014-0.137-0.03-0.204-0.048c-0.415,0.734-0.895,1.44-1.232,2.207c-1.341,3.054-1.123,6.049,0.557,8.902  c0.715,1.212,1.589,2.332,2.398,3.486c0.125,0.178,0.296,0.326,0.439,0.496c0.127,0.146,0.246,0.3,0.368,0.452  c0.059-0.036,0.121-0.075,0.181-0.112C28.986,69.561,28.891,64.313,29.43,58.963z M48.501,75.747  c-0.279-0.16-0.428-0.312-0.591-0.33c-1.087-0.123-2.123-0.407-2.936-1.16c-1.273-1.179-2.163-2.659-2.912-4.198  c-0.597-1.224-1.288-2.345-2.338-3.365c-0.062,0.364-0.196,0.688-0.149,0.981c0.085,0.536,0.247,1.064,0.431,1.576  c0.352,0.987,0.729,1.964,1.122,2.931c0.102,0.244,0.357,0.425,0.464,0.666c0.245,0.573,0.449,1.145,0.931,1.592  c0.655,0.609,1.243,1.294,1.903,1.898c0.204,0.186,0.55,0.293,0.834,0.301C46.358,76.666,47.352,76.265,48.501,75.747z   M48.34,71.263c0.022-0.043,0.046-0.085,0.069-0.13c-0.402-0.99-0.812-1.979-1.205-2.976c-0.247-0.626-0.444-1.272-0.702-1.895  c-0.254-0.613-0.518-1.201-1.297-1.375c-0.379-0.084-0.721-0.368-1.061-0.594c-0.779-0.52-1.547-1.062-2.319-1.594  c-0.349,0.509-0.34,0.726,0.06,1.49c0.555,1.068,1.063,2.168,1.687,3.197c0.436,0.714,0.947,1.429,1.572,1.971  c0.683,0.597,1.529,1.001,2.313,1.474C47.736,71.001,48.045,71.122,48.34,71.263z M38.411,72.179  c-0.014-0.138-0.017-0.217-0.031-0.292c-0.113-0.58-0.306-1.158-0.325-1.744c-0.038-0.998,0.038-2.002,0.051-3.009  c0.002-0.201-0.068-0.407-0.111-0.612c-0.053-0.239-0.135-0.473-0.168-0.714c-0.064-0.455,0.057-1.035-0.179-1.354  c-0.676-0.902-1.494-1.704-2.316-2.611c-0.143,0.325-0.319,0.557-0.326,0.792c-0.013,0.442,0.114,0.887,0.108,1.331  c-0.01,0.795-0.229,1.622-0.079,2.378c0.211,1.086,0.646,2.132,1.044,3.173c0.145,0.379,0.448,0.699,0.68,1.048  c0.127,0.188,0.254,0.374,0.385,0.574C37.52,71.444,37.927,71.779,38.411,72.179z M51.802,85.813  c0.419,0.385,0.833,0.768,1.249,1.147c-0.035,0.039-0.069,0.075-0.104,0.115c-0.178,0.017-0.357,0.033-0.571,0.056  c0.066,0.088,0.09,0.142,0.106,0.138c0.773-0.109,1.227,0.343,1.648,0.894c0.112,0.149,0.326,0.313,0.495,0.313  c0.593,0,1.194-0.012,1.773-0.124c0.954-0.183,1.912-0.391,2.831-0.697c0.984-0.328,1.925-0.781,2.883-1.181  c-0.017-0.052-0.035-0.102-0.054-0.152c-2.168,0.028-4.298-0.211-6.363-0.894c-0.744-0.247-1.437-0.422-2.218,0.027  C53.015,85.727,52.384,85.701,51.802,85.813z M37.672,79.712c1.901,2.108,9.309,5.135,11.079,4.611  c-0.33-0.302-0.694-0.624-1.047-0.962c-0.524-0.504-1.096-0.974-1.543-1.541c-0.414-0.522-0.847-0.863-1.531-0.948  c-0.704-0.087-1.395-0.3-2.092-0.451c-0.508-0.11-1.011-0.251-1.526-0.302c-0.503-0.048-1.02,0.054-1.521-0.008  C38.896,80.035,38.314,79.855,37.672,79.712z M65.904,70.787c-0.464-0.003-1.815,1.147-2.363,2.021  c0.765,0.178,1.803,0.087,2.418-0.188c0.166-0.076,0.42-0.177,0.535-0.107c0.553,0.335,1.034,0.152,1.392-0.238  c0.838-0.911,1.676-1.833,2.392-2.837c0.4-0.56,1.061-1.151,0.507-2.066c0.174,0.053,0.25,0.079,0.368,0.112  c-0.05-0.169-0.092-0.31-0.142-0.476c-0.089,0.067-0.153,0.115-0.26,0.193c-0.014-0.407,0.025-0.863-0.349-0.792  c-0.41,0.476-0.678,0.832-0.996,1.13c-0.258,0.244-0.603,0.392-0.873,0.624c-0.598,0.516-1.118,1.134-1.769,1.563  c-0.546,0.362-0.705,0.753-0.583,1.263c-0.143,0.183-0.25,0.323-0.357,0.461c-0.033-0.002-0.067-0.008-0.1-0.014  C65.782,71.231,65.838,71.023,65.904,70.787z M51.269,62.624c0.071,0.284,0.076,0.408,0.131,0.501  c0.528,0.896,1.061,1.791,1.604,2.679c0.278,0.462,0.699,0.54,1.232,0.613c1.067,0.147,1.57-0.23,1.833-1.251  c0.294-1.142,0.912-2.182,1.078-3.369c0.048-0.351-0.048-0.469-0.376-0.328c-0.435,0.183-0.852,0.416-1.294,0.573  c-0.635,0.22-1.275,0.473-1.934,0.562C52.832,62.697,52.097,62.624,51.269,62.624z M52.429,56.983  c-0.155,0.118-0.481,0.233-0.557,0.441c-0.292,0.807-1.077,1.125-1.597,1.695c-0.483,0.529-0.615,0.56-0.276,1.192  c0.183,0.34,0.401,0.805,0.707,0.908c0.538,0.184,1.16,0.203,1.739,0.157c0.734-0.056,1.466-0.219,2.187-0.385  c0.364-0.082,0.707-0.267,1.005-0.382C54.554,59.385,53.516,58.212,52.429,56.983z M57.462,82.51  c-0.203-0.113-0.275-0.135-0.317-0.183c-0.16-0.172-0.681-0.079-0.432-0.588c0.024-0.051-0.292-0.267-0.447-0.408  c-0.013,0.034-0.027,0.064-0.039,0.099c0.022,0.07,0.043,0.141,0.065,0.211c-0.214-0.024-0.426-0.051-0.752-0.091  c0.207-0.173,0.277-0.232,0.282-0.238c-0.379-0.138-0.797-0.211-1.116-0.431c-0.334-0.228-0.9-0.275-0.886-0.775  c-0.226-0.099-0.414-0.196-0.608-0.262c-0.185-0.059-0.393-0.152-0.565-0.112c-0.56,0.118-1.109,0.284-1.658,0.45  c-0.488,0.148-0.969,0.32-1.562,0.518c0.853,0.475,1.575,0.898,2.312,1.287c0.984,0.518,1.981,1.015,2.979,1.505  c0.124,0.062,0.32,0.075,0.444,0.025C55.897,83.213,56.618,82.881,57.462,82.51z M30.807,51.888c0.02-0.905,0.561-1.738,0.192-2.665  c0.114,0.02,0.229,0.042,0.341,0.062c-0.177-0.21-0.487-0.287-0.565-0.464c-0.71-1.648-1.468-3.287-1.659-5.109  c-0.048,0.017-0.087,0.02-0.107,0.042c-0.042,0.051-0.092,0.107-0.108,0.169c-0.462,1.566-0.866,3.132-0.9,4.794  C27.962,50.393,29.323,51.464,30.807,51.888z M74.323,35.045c-0.061,0.042-0.119,0.084-0.179,0.127  c0.16,0.41,0.357,0.81,0.472,1.231c0.166,0.596,0.203,1.235,0.42,1.809c0.513,1.357,0.566,2.787,0.708,4.201  c0.042,0.422-0.146,0.866-0.123,1.296c0.02,0.324,0.117,0.754,0.343,0.931c0.521,0.41,1.141,0.691,1.792,1.065  c0.042-0.196,0.112-0.349,0.102-0.498c-0.104-1.547-0.328-3.079-0.756-4.572c-0.517-1.8-1.124-3.565-2.26-5.092  C74.701,35.354,74.499,35.208,74.323,35.045z M43.303,23.573c0.297,0.271,0.527,0.515,0.795,0.712  c0.469,0.337,0.961,0.644,1.44,0.967c1.591,1.077,3.171,2.171,4.781,3.217c0.253,0.163,0.639,0.124,0.962,0.174  c0.02-0.057,0.04-0.113,0.059-0.171c-0.084-0.144-0.146-0.31-0.256-0.428c-0.983-1.083-1.927-2.21-2.979-3.22  c-0.908-0.874-2.029-1.437-3.319-1.572C44.292,23.199,43.816,23.244,43.303,23.573z M62.151,28.179  c0.94,0.534,1.893,0.965,2.708,1.575c0.85,0.633,1.567,1.44,2.326,2.16c1.018-0.22,2.103-0.45,3.171-0.681  C69.016,29.214,65.473,27.625,62.151,28.179z M53.606,55.642c0.012,0.2,0.003,0.239,0.016,0.267  c0.021,0.045,0.055,0.085,0.086,0.124c0.852,1.156,1.673,2.351,2.925,3.13c0.268,0.165,0.637,0.371,0.892,0.304  c0.225-0.062,0.427-0.456,0.513-0.74c0.246-0.81,0.417-1.642,0.64-2.46c0.125-0.47,0.037-0.63-0.453-0.669  c-0.661-0.056-1.321-0.157-1.98-0.146C55.367,55.468,54.492,55.575,53.606,55.642z M68.628,34.162  c-0.015,0.057-0.028,0.113-0.043,0.166c0.04,0.071,0.062,0.169,0.123,0.203c1.193,0.683,1.922,1.842,2.847,2.795  c0.965,0.998,1.598,2.221,2.127,3.5c0.123,0.296,0.33,0.554,0.496,0.83c0.044-0.017,0.087-0.037,0.131-0.054  c-0.03-0.332-0.036-0.672-0.097-0.998c-0.104-0.568-0.304-1.125-0.354-1.693c-0.129-1.414-0.715-2.682-1.189-3.987  c-0.054-0.146-0.262-0.312-0.416-0.332C71.046,34.43,69.835,34.3,68.628,34.162z M47.221,54.54c0.298,0.135,0.522,0.29,0.766,0.329  c0.262,0.042,0.542-0.009,0.812-0.045c0.608-0.081,1.222-0.146,1.819-0.281c0.3-0.07,0.48-0.265,0.256-0.646  c-0.37-0.633-0.745-1.277-0.996-1.96c-0.236-0.638-0.928-0.593-1.278-1.023c-0.023-0.028-0.173,0.039-0.256,0.07  c-0.19,0.07-0.374,0.203-0.565,0.206c-0.383,0.011-0.769-0.045-1.104-0.07c-0.06,0.121-0.116,0.208-0.153,0.303  c-0.078,0.211-0.214,0.431-0.2,0.636c0.018,0.275,0.151,0.542,0.248,0.81c0.034,0.09,0.102,0.168,0.164,0.248  C47.063,53.534,47.427,53.941,47.221,54.54z M56.916,84.265c1.598,0.455,3.122,0.655,4.667,0.522  c1.028-0.088,2.05-0.272,3.068-0.458c0.714-0.133,1.237-0.565,1.65-1.218c-0.143,0.014-0.249,0.002-0.337,0.039  c-0.091,0.037-0.161,0.175-0.24,0.175c-0.933-0.012-1.865-0.046-2.799-0.052c-0.174,0-0.347,0.102-0.522,0.142  c-0.111,0.024-0.278,0.07-0.33,0.02c-0.507-0.509-1.175-0.461-1.797-0.521c-0.486-0.048-1.01-0.067-1.471,0.06  c-0.516,0.144-0.998,0.447-1.466,0.73C57.163,83.808,57.071,84.053,56.916,84.265z M77.063,74.442  c2.274-2.904,4.067-6.04,5.324-9.477c-0.348,0.344-0.764,0.676-0.915,1.1c-0.329,0.923-1.149,1.342-1.789,1.93  c-0.424,0.385-0.649,1.043-1.352,1.124c-0.08,0.009-0.131,0.267-0.198,0.41c-0.641-0.272-0.528,0.304-0.56,0.563  c-0.129,1.057-0.188,2.12-0.296,3.181C77.238,73.666,77.136,74.051,77.063,74.442z M56.899,45.708  c0.072,0.208,0.203,0.383,0.174,0.526c-0.141,0.722-0.359,1.431-0.478,2.16c-0.161,0.993-0.953,1.786-0.874,2.851  c0.005,0.067-0.123,0.144-0.251,0.284c0.457,0.129,0.86,0.25,1.269,0.356c0.05,0.015,0.13-0.025,0.177-0.062  c0.688-0.557,1.381-1.108,2.05-1.687c0.117-0.101,0.211-0.352,0.171-0.489c-0.196-0.664-0.441-1.313-0.673-1.966  c-0.026-0.076-0.083-0.146-0.139-0.208c-0.362-0.401-0.703-0.812-0.694-1.403C57.633,45.798,57.136,45.57,56.899,45.708z   M73.067,67.752c0.937-1.121,1.788-2.127,2.616-3.154c0.112-0.144,0.171-0.396,0.137-0.573c-0.272-1.411-0.575-2.817-0.874-4.249  c-0.102,0.057-0.15,0.065-0.156,0.087c-0.124,0.549-0.128,1.147-0.659,1.521c0.062,0.07,0.123,0.144,0.202,0.233  c-0.465,0.354-0.976,0.67-1.043,1.322c-0.007,0.048-0.025,0.112-0.06,0.132c-0.392,0.256-0.311,0.658-0.195,0.964  c0.396,1.058,0.469,2.102,0.065,3.172C73.052,67.336,73.082,67.494,73.067,67.752z M65.984,32.729  c-1.013-2.398-5.466-4.159-7.702-3.506c0.514,0.354,0.929,0.638,1.354,0.931c-0.105,0.082-0.179,0.138-0.35,0.27  c0.804,0.034,1.012,0.461,0.939,1.041C62.191,31.677,64.123,31.848,65.984,32.729z M36.188,76.583  c-0.334-0.507-0.729-0.982-0.994-1.52c-0.819-1.653-1.334-3.413-1.531-5.243c-0.129-1.193-1.023-1.859-1.558-2.796  c-0.142,0.251-0.238,0.422-0.303,0.534c0.077,0.247,0.183,0.464,0.217,0.692c0.091,0.599,0.168,1.203,0.222,1.808  c0.029,0.368,0.005,0.742,0.005,0.937c0.5,1.139,0.661,2.286,1.391,3.191C34.377,75.103,35.154,75.964,36.188,76.583z M76.127,70.88  c-0.623,0.239-1.17,0.512-1.75,0.651c-0.562,0.142-0.624,0.456-0.57,0.942c0.158,1.448,0.281,2.902,0.425,4.353  c0.028,0.279,0.091,0.552,0.14,0.844C75.246,77.155,76.329,72.958,76.127,70.88z M59.928,48.036c0.062,0,0.123-0.002,0.186-0.002  c0.033-0.186,0.081-0.369,0.102-0.554c0.122-1.207-0.268-2.325-0.658-3.43c-0.416-1.182-0.937-2.329-1.392-3.501  c-0.149-0.382-0.457-0.379-0.703-0.259c-0.135,0.064-0.188,0.379-0.205,0.587c-0.021,0.248,0.021,0.506,0.059,0.757  c0.073,0.483,0.081,0.998,0.265,1.434c0.404,0.953,0.911,1.862,1.358,2.795C59.282,46.58,59.6,47.311,59.928,48.036z M51.141,65.697  c0.031-0.043,0.062-0.081,0.093-0.12c-0.388-0.703-0.846-1.376-1.142-2.115c-0.28-0.7-0.681-1.136-1.432-1.26  c-0.246-0.039-0.488-0.154-0.714-0.272c-0.413-0.219-0.813-0.464-1.221-0.697c-0.034,0.033-0.067,0.067-0.101,0.101  c0.115,0.347,0.229,0.692,0.363,1.094c-0.266,0.062-0.501,0.112-0.74,0.166c0.003,0.028,0.003,0.054,0.003,0.079  c0.26,0.034,0.52,0.064,0.856,0.104c0.016,0.182,0.036,0.419,0.054,0.62c0.102,0.122,0.206,0.243,0.31,0.366  c-0.024,0.022-0.05,0.045-0.076,0.068c-0.139-0.042-0.277-0.085-0.416-0.127c-0.018,0.037-0.036,0.075-0.055,0.112  c0.455,0.281,0.994,0.455,1.293,0.936c0.014,0.023,0.063,0.021,0.096,0.031c0.511,0.183,1.018,0.38,1.533,0.549  C50.271,65.473,50.708,65.577,51.141,65.697z M42.461,78.176c-0.276-0.525-0.676-0.86-1.212-1.09  c-1.753-0.763-3.237-1.885-4.425-3.391c-0.184-0.232-0.41-0.429-0.617-0.64C37.298,76.076,38.897,78.469,42.461,78.176z   M35.906,57.07c-0.048,0.099-0.272,0.332-0.231,0.498c0.136,0.537-0.061,0.897-0.306,1.074c0.037,0.45,0.042,0.771,0.096,1.083  c0.062,0.359,0.081,0.77,0.276,1.051c0.433,0.619,0.961,1.17,1.455,1.746c0.058,0.067,0.152,0.102,0.32,0.211  c0-0.391,0.031-0.694-0.008-0.989c-0.059-0.462-0.175-0.914-0.252-1.372c-0.063-0.38-0.249-0.782,0.076-1.044  c-0.086-0.238-0.229-0.438-0.207-0.618c0.06-0.48-0.123-0.823-0.486-1.103C36.412,57.434,36.177,57.268,35.906,57.07z   M76.111,65.982c-0.077-0.023-0.156-0.048-0.235-0.074c-0.281,0.481-0.911,0.669-0.982,1.341c-0.018,0.155-0.212,0.295-0.34,0.428  c-0.364,0.368-0.739,0.726-1.101,1.098c-0.063,0.066-0.116,0.188-0.107,0.277c0.054,0.494,0.129,0.987,0.214,1.608  c0.905-0.528,1.698-0.981,2.478-1.453c0.096-0.057,0.173-0.23,0.171-0.347C76.186,67.899,76.146,66.94,76.111,65.982z   M52.421,69.949c0.171,0.081,0.272,0.16,0.383,0.183c0.313,0.059,0.378,0.726,0.794,0.394c0.239-0.191,0.324-0.574,0.478-0.871  c0.016-0.029,0.044-0.065,0.039-0.094c-0.018-0.121-0.009-0.27-0.074-0.359c-0.725-1.019-1.801-1.46-2.947-1.78  c-0.57-0.16-1.147-0.293-1.69-0.428c-0.044,0.07-0.171,0.212-0.148,0.239c0.178,0.236,0.362,0.47,0.582,0.664  c0.489,0.433,1,0.838,1.496,1.248c-0.073,0.034-0.143,0.068-0.212,0.099c0.729-0.003,1.01,0.54,1.375,0.995  C52.477,70.168,52.456,70.093,52.421,69.949z M57.604,66.358c0.603-0.166,1.083-0.268,1.539-0.437  c0.158-0.059,0.307-0.274,0.365-0.449c0.298-0.877,0.565-1.767,0.841-2.648c0.311-0.993,0.307-0.965-0.724-1.116  c-0.462-0.068-0.606,0.084-0.733,0.506c-0.298,0.998-0.678,1.971-1.006,2.958C57.774,65.513,57.718,65.868,57.604,66.358z   M46.854,46.433c-0.061,0.009-0.119,0.02-0.179,0.029c-0.256,1.147-0.522,2.294-0.758,3.447c-0.021,0.107,0.139,0.359,0.216,0.362  c0.476,0,0.873,0.214,1.29,0.385c0.04,0.017,0.11-0.037,0.265-0.096c-0.217-0.112-0.347-0.182-0.562-0.292  c0.636,0.042,1.181,0.082,1.725,0.119c0.029-0.048,0.058-0.096,0.088-0.144C48.243,48.973,47.548,47.705,46.854,46.433z   M69.402,81.596c0.137-0.02,0.221-0.022,0.299-0.042c1.376-0.352,2.27-1.364,3.187-2.337c0.121-0.129,0.186-0.359,0.191-0.542  c0.011-0.335-0.021-0.672-0.075-1.002c-0.081-0.497,0.089-1.061-0.342-1.53c-0.117,0.201-0.214,0.355-0.304,0.516  c-0.289,0.525-0.643,1.031-0.84,1.592c-0.139,0.391-0.115,0.828-0.568,1.042c-0.012,0.006,0.031,0.091,0.02,0.133  c-0.033,0.121-0.045,0.287-0.129,0.354C70.234,80.255,69.696,80.78,69.402,81.596z M48.903,32.265  c-0.031-0.059-0.065-0.115-0.099-0.174c-0.955-0.141-1.821-0.005-2.402,0.346c-1.501,0.911-2.882,1.979-4.165,3.172  c-0.438,0.408-0.822,0.877-1.231,1.319c0.634-0.4,1.193-0.875,1.792-1.294c0.597-0.413,1.22-0.798,1.858-1.144  c0.874-0.476,1.774-0.891,2.658-1.35C47.851,32.861,48.373,32.557,48.903,32.265z M45.931,85.656  c0.684,0.844,5.511,2.65,6.304,2.466c-0.389-0.45-0.878-0.942-1.276-1.496c-0.317-0.444-0.688-0.565-1.206-0.557  c-0.762,0.015-1.524-0.031-2.283-0.104C46.986,85.918,46.513,85.776,45.931,85.656z M48.889,69.642  c0.144,0.318,0.242,0.605,0.396,0.858c0.109,0.183,0.337,0.298,0.436,0.484c0.396,0.75,0.759,1.492,1.771,1.591  c0.644,0.064,0.844-0.015,1.033-0.703c-1.784-1.026-3.15-2.525-4.523-4.142c0.116,0.531,0.133,1.009,0.342,1.383  C48.434,69.271,48.339,70.045,48.889,69.642z M42.663,57.86c-0.509-0.455-0.96-0.862-1.412-1.268  c-0.059,0.024-0.117,0.051-0.177,0.076c-0.051,0.905-0.166,1.816-0.133,2.719c0.022,0.663,0.962,0.97,1.479,0.534  c0.364-0.304,0.718-0.624,1.074-0.937C43.242,58.502,42.465,58.445,42.663,57.86z M54.45,30.358  c0.008,0.042,0.017,0.084,0.025,0.126c0.489,0.186,0.979,0.374,1.472,0.552c0.49,0.177,0.989,0.334,1.474,0.523  c0.499,0.193,0.983,0.2,1.567,0.04c-0.599-0.74-1.112-1.395-1.659-2.022c-0.118-0.133-0.402-0.256-0.542-0.206  C55.997,29.669,55.226,30.023,54.45,30.358z M52.428,84.286c-0.004-0.038-0.005-0.075-0.007-0.112  c-1.7-1.015-3.399-2.033-5.101-3.048c-0.023,0.017-0.049,0.033-0.071,0.054c0.396,0.447,0.793,0.892,1.209,1.357  c-0.27,0-0.512,0-0.75,0c-0.021,0.037-0.04,0.073-0.06,0.112c0.23,0.169,0.438,0.397,0.697,0.493c0.314,0.12,0.537,0.27,0.646,0.593  c0.029,0.082,0.166,0.126,0.301,0.216c-0.03-0.221-0.047-0.333-0.062-0.446c0.104,0.02,0.233,0.012,0.31,0.07  c0.188,0.144,0.346,0.326,0.529,0.478c0.192,0.16,0.401,0.431,0.601,0.431C51.258,84.475,51.842,84.36,52.428,84.286z   M63.176,61.038c-0.131,0.152-0.231,0.335-0.285,0.323c-0.534-0.126-0.645,0.191-0.715,0.607c-0.063,0.386-0.167,0.762-0.259,1.142  c-0.147,0.61-0.301,1.218-0.485,1.96c0.908-0.56,1.777-0.932,2.242-1.939C63.531,62.534,63.358,61.809,63.176,61.038z M32.956,58.65  c-0.09,0.015-0.181,0.026-0.272,0.04c-0.158,2.108-1.034,4.161-0.255,6.388c0.089,0.071,0.27,0.212,0.545,0.431  c0-0.751,0-1.403,0-2.059c-0.028,0-0.056,0-0.085,0c0,0.173,0,0.347,0,0.518c-0.022-0.472-0.054-0.947-0.016-1.417  c0.087-1.062,0.222-2.123,0.295-3.186C33.185,59.132,33.032,58.89,32.956,58.65z M44.434,54.962c0-0.281-0.013-0.554,0.004-0.827  c0.042-0.779,0.098-1.552,0.144-2.331c0.028-0.49-0.09-0.616-0.549-0.492c-0.365,0.098-0.727,0.245-1.056,0.431  c-0.077,0.042-0.088,0.401-0.001,0.495c0.204,0.216,0.531,1.085,0.425,1.361C43.147,54.25,43.594,54.906,44.434,54.962z   M73.311,54.664c-0.067-0.022-0.135-0.045-0.204-0.064c-0.208,0.368-0.477,0.72-0.609,1.116c-0.22,0.658-0.692,1.226-0.692,1.977  c0,0.165,0.072,0.548-0.326,0.593c-0.017,0.003,0.051,0.357,0.003,0.528c-0.16,0.583,0.043,1.097,0.241,1.635  C72.449,58.562,73.153,56.68,73.311,54.664z M68.304,85.223c2.129-0.478,3.269-2.078,4.433-3.654  c-0.275,0.077-0.519,0.202-0.74,0.359c-1.094,0.778-2.147,1.625-3.293,2.322C68.273,84.512,68.162,84.706,68.304,85.223z   M62.021,46.462c1.178-1.524,1.852-3.203,1.625-5.151c-0.013-0.09-0.128-0.169-0.196-0.253c-0.083,0.073-0.214,0.129-0.237,0.217  c-0.199,0.765-0.387,1.532-0.563,2.303c-0.078,0.34-0.111,0.692-0.187,1.032C62.323,45.227,62.169,45.846,62.021,46.462z   M51.046,51.52c0.069,0.248,0.067,0.383,0.132,0.453c0.291,0.321,0.374,0.729,0.52,1.113c0.054,0.141,0.278,0.222,0.431,0.321  c0.199,0.127,0.405,0.248,0.609,0.371c0.245-0.472,0.438-0.863,0.65-1.245c0.188-0.338-0.051-0.613-0.26-0.664  C52.471,51.703,51.787,51.636,51.046,51.52z M37.196,42.59c-0.089-0.042-0.179-0.087-0.271-0.129  c-0.461,0.728-0.926,1.456-1.381,2.19c-0.199,0.321-0.396,0.65-0.566,0.99c-0.121,0.233-0.152,0.528-0.31,0.728  c-0.208,0.273-0.174,0.509,0.058,0.653c0.08,0.047,0.396-0.164,0.511-0.324c0.229-0.312,0.421-0.658,0.585-1.012  C36.292,44.66,36.74,43.622,37.196,42.59z M30.633,43.689c-0.068,0.037-0.137,0.076-0.205,0.115  c0.465,1.313,0.929,2.629,1.393,3.945c0.054-0.011,0.11-0.02,0.164-0.028c0.106-0.248,0.181-0.515,0.327-0.736  c0.245-0.371,0.157-0.661-0.08-1.004c-0.45-0.653-0.85-1.344-1.282-2.014C30.876,43.855,30.74,43.782,30.633,43.689z M76.265,46.487  c-0.025,0.25-0.062,0.368-0.046,0.478c0.091,0.545,0.195,1.091,0.291,1.637c0.101,0.593,0.551,0.866,0.951,0.574  c0.256-0.188,0.409-1.409,0.17-1.614C77.224,47.207,76.783,46.892,76.265,46.487z M64.377,62.312  c0.041,0.012,0.083,0.02,0.125,0.028c0.442-0.799,0.891-1.589,1.316-2.393c0.051-0.096-0.017-0.25-0.027-0.374  c-0.104,0.02-0.208,0.03-0.308,0.062c-0.18,0.051-0.353,0.124-0.53,0.169c-0.603,0.157-0.976,0.672-0.872,1.279  C64.15,61.5,64.276,61.904,64.377,62.312z M60.919,43.25c0.215-0.962,0.396-1.774,0.589-2.632c-0.637-0.073-1.172-0.132-1.762-0.199  c0.208,0.56,0.361,1.004,0.542,1.439C60.462,42.28,60.663,42.691,60.919,43.25z M73.075,50.348c0.518-0.397,0.69-2.508,0.251-3.585  c-0.125,0.34-0.247,0.652-0.354,0.97C72.675,48.604,72.176,49.479,73.075,50.348z M48.377,42.494  c1.152-0.625,2.305-1.251,3.457-1.876c-0.607-0.008-1.185,0.169-1.766,0.172C48.948,40.793,48.665,41.614,48.377,42.494z   M48.062,59.106c-0.137-0.329-0.278-0.649-0.4-0.979c-0.108-0.287-0.286-0.239-0.477-0.115c-0.335,0.222-0.681,0.433-0.984,0.691  c-0.078,0.068-0.09,0.368-0.013,0.447C46.798,59.775,47.391,59.747,48.062,59.106z M59.402,39.016  c0.006,0.073,0.008,0.149,0.013,0.222c0.737,0.067,1.472,0.152,2.211,0.194c0.217,0.011,0.568-0.644,0.464-0.844  c-0.154-0.292-0.413-0.298-0.705-0.202C60.727,38.605,60.062,38.808,59.402,39.016z M51.024,56.533  c-0.059-0.064-0.116-0.132-0.173-0.196c-0.506,0.202-1.021,0.391-1.521,0.607c-0.664,0.286-0.701,0.854-0.036,1.386  C49.869,57.734,50.446,57.135,51.024,56.533z M61.005,58.361c-0.072-0.039-0.144-0.076-0.217-0.115  c-0.352,0.419-0.723,0.823-1.046,1.266c-0.115,0.157-0.113,0.401-0.163,0.606c0.27,0.057,0.543,0.166,0.808,0.152  c0.155-0.011,0.398-0.2,0.427-0.346C60.918,59.413,60.948,58.885,61.005,58.361z M41.226,47.89c-0.48,1.161-0.913,2.207-1.352,3.27  C40.863,51.183,41.607,49.451,41.226,47.89z M56.186,34.579c0.511,1.094,1.892,0.706,3.064,0  C58.238,34.579,57.225,34.579,56.186,34.579z M50.489,39.598c1.099-0.132,2.104-0.256,3.129-0.379  c-0.372-0.958-0.476-1.001-1.285-0.576C51.745,38.949,51.155,39.252,50.489,39.598z M70.99,39.95  c-0.021,0.253-0.094,0.447-0.037,0.59c0.221,0.579,0.456,1.155,0.739,1.707c0.115,0.228,0.36,0.388,0.544,0.579  C72.437,41.563,71.786,40.77,70.99,39.95z M63.908,74.637c-0.005-0.051-0.01-0.107-0.014-0.157c-0.198-0.031-0.393-0.068-0.591-0.09  c-0.222-0.026-0.448-0.012-0.66-0.068c-0.733-0.188-1.313,0.062-1.749,0.892C61.964,75.008,62.937,74.822,63.908,74.637z   M62.082,36.789c-0.396-1.234-1.477-1.614-2.591-1.018C60.314,36.094,61.156,36.426,62.082,36.789z M50.292,36.839  c-0.859,0.096-2.342,2.092-2.458,3.318C48.644,39.063,49.471,37.95,50.292,36.839z M44.318,50.401  c-0.264-0.599-0.475-1.083-0.686-1.566c-0.054-0.003-0.104-0.003-0.156-0.003c-0.214,0.545-0.428,1.094-0.688,1.751  C43.353,50.516,43.792,50.465,44.318,50.401z M74.748,51.424c0.05,0.225,0.122,0.383,0.107,0.535  c-0.014,0.177-0.132,0.346-0.148,0.526c-0.021,0.188,0.053,0.385,0.036,0.571c-0.016,0.177-0.148,0.351-0.138,0.523  c0.036,0.545,0.112,1.088,0.177,1.656c0.305-0.568,0.506-3.323,0.299-4.029C74.948,51.292,74.822,51.377,74.748,51.424z   M68.524,33.094c1.179,0.07,2.218,0.132,3.262,0.194C71.43,32.557,69.747,32.411,68.524,33.094z M58.095,68.012  c-0.025-0.057-0.05-0.11-0.073-0.166c-0.352,0.062-0.734,0.06-1.041,0.211c-0.195,0.096-0.304,0.41-0.395,0.646  c-0.055,0.141-0.065,0.388,0.017,0.469c0.156,0.158,0.384,0.302,0.598,0.004C57.484,68.779,57.797,68.4,58.095,68.012z   M33.662,57.158c0.238-0.726,0.447-1.299,0.607-1.89c0.038-0.138-0.092-0.323-0.145-0.487c-0.15,0.06-0.412,0.096-0.432,0.186  c-0.124,0.574-0.208,1.156-0.271,1.741C33.409,56.82,33.548,56.95,33.662,57.158z M67.913,66.153  c0.062,0.028,0.124,0.056,0.187,0.083c0.306-0.355,0.611-0.713,0.917-1.07c0.524-0.616,0.524-0.616-0.104-1.281  C68.572,64.662,68.242,65.408,67.913,66.153z M64.638,58.505c-0.488-0.362-0.88-0.652-1.271-0.942  c-0.049,0.039-0.098,0.079-0.146,0.118c0.139,0.506,0.276,1.013,0.443,1.62C64.008,59.02,64.275,58.8,64.638,58.505z M44.912,62.748  c0.05-0.042,0.099-0.082,0.149-0.121c-0.217-0.357-0.354-0.875-0.666-1.021c-0.33-0.157-0.864-0.178-1.305,0.132  c0.396,0.219,0.908,0.166,0.935,0.667C44.342,62.525,44.625,62.635,44.912,62.748z M47.55,72.542  c0.784,1.304,1.05,1.422,2.156,0.967C48.928,73.159,48.238,72.852,47.55,72.542z M45.891,57.287c0.32-0.163,0.613-0.289,0.878-0.458  c0.104-0.067,0.232-0.253,0.205-0.338c-0.037-0.109-0.205-0.219-0.336-0.253C45.883,56.05,45.641,56.354,45.891,57.287z   M45.551,46.523c-1.012,0.382-1.178,1.156-0.421,1.796C45.269,47.729,45.4,47.165,45.551,46.523z M57.841,36.828  c0.434,1.046,0.434,1.046,1.804,0.54C59.013,37.18,58.466,37.017,57.841,36.828z M35.42,50.741c-0.056-0.017-0.109-0.034-0.167-0.05  c-0.217,0.511-0.448,1.023-0.646,1.543c-0.045,0.124-0.013,0.301,0.043,0.427c0.019,0.042,0.32,0.026,0.328-0.003  C35.139,52.023,35.276,51.382,35.42,50.741z M41.999,53.201c-0.05,0-0.099,0-0.15-0.002c-0.119,0.478-0.24,0.957-0.367,1.465  c0.319,0,0.563,0,0.867,0C42.224,54.146,42.111,53.674,41.999,53.201z M70.335,61.797c-0.658,0.633-0.658,0.633,0.038,1.44  C70.703,62.76,70.697,62.34,70.335,61.797z M85.046,54.391c0-0.711,0-1.361,0-2.101C84.479,53.039,84.49,53.713,85.046,54.391z   M29.816,42.691c-0.054-0.008-0.107-0.02-0.16-0.028c-0.1,0.141-0.208,0.279-0.293,0.428c-0.037,0.067-0.005,0.174-0.043,0.236  c-0.04,0.064-0.131,0.096-0.199,0.141c0.073,0.056,0.142,0.118,0.221,0.163c0.167,0.09,0.339,0.171,0.535,0.273  C30.393,43.43,29.604,43.118,29.816,42.691z M16.798,62.132c-0.354-0.666-0.603-1.403-1.247-1.926  C15.604,61.162,16.335,61.556,16.798,62.132z M31.319,48.573c0.043-0.29,0.244-0.587-0.173-0.827  c-0.098-0.054-0.11-0.256-0.191-0.47c-0.105,0.048-0.253,0.113-0.404,0.18c0.132,0.194,0.238,0.352,0.345,0.506  c-0.123,0.081-0.219,0.146-0.271,0.18C30.849,48.281,31.051,48.407,31.319,48.573z M55.266,38.731  c0.043-0.014,0.085-0.028,0.126-0.044c-0.087-0.447-0.177-0.897-0.264-1.344c-0.07-0.014-0.139-0.028-0.208-0.042  c-0.083,0.155-0.272,0.352-0.229,0.45C54.839,38.096,55.065,38.408,55.266,38.731z M45.611,54.852  c0.316,0.191,0.564,0.149,0.518-0.141c-0.053-0.326-0.207-0.635-0.316-0.953c-0.067,0.014-0.133,0.031-0.201,0.048  C45.611,54.124,45.611,54.444,45.611,54.852z M44.556,57.717c-0.045-0.46-0.085-0.849-0.133-1.312  c-0.155,0.278-0.334,0.481-0.388,0.714C43.946,57.498,44.238,57.622,44.556,57.717z M20.87,67.427  c0.035-0.251,0.122-0.441,0.061-0.525c-0.139-0.195-0.254-0.518-0.549-0.287c-0.09,0.09-0.18,0.18-0.29,0.292  c0.05,0.065,0.151,0.191,0.262,0.329C20.626,66.754,20.689,67.148,20.87,67.427z M65.791,38.682  c0.066-0.645-0.248-1.013-0.719-1.021C65.317,38.009,65.554,38.347,65.791,38.682z M23.82,69.353  c-0.312,0.557-0.568-0.123-0.894,0.087c0.509,0.133,0.726,0.724,1.254,0.724C24.034,69.833,23.931,69.604,23.82,69.353z   M76.762,52.13c0.545-0.99,0.534-1.212,0-1.243C76.762,51.258,76.762,51.627,76.762,52.13z M38.161,48.486  c0.062,0.017,0.127,0.031,0.19,0.048c0.134-0.452,0.265-0.902,0.398-1.355c-0.06-0.017-0.118-0.037-0.179-0.057  C38.436,47.578,38.298,48.031,38.161,48.486z M28.241,38.197c0.035-0.039,0.071-0.078,0.107-0.115  c-0.119-0.23-0.237-0.458-0.355-0.688c-0.165,0.053-0.299,0.098-0.536,0.18C27.762,37.815,28.002,38.006,28.241,38.197z   M46.353,43.079c0.071,0.018,0.144,0.037,0.214,0.056c0.139-0.379,0.276-0.759,0.416-1.138c-0.057-0.02-0.112-0.04-0.169-0.062  C46.662,42.317,46.507,42.696,46.353,43.079z M40.099,52.333c-0.045-0.042-0.093-0.085-0.138-0.127  c-0.149,0.132-0.333,0.239-0.428,0.402c-0.04,0.07,0.104,0.248,0.227,0.512C39.913,52.763,40.006,52.546,40.099,52.333z   M39.075,55.859c-0.055-0.006-0.109-0.011-0.164-0.02c-0.03,0.523-0.058,1.043-0.087,1.566c0.031,0.003,0.065,0.006,0.098,0.009  C38.974,56.894,39.024,56.376,39.075,55.859z M52.386,37.514c-0.027-0.051-0.054-0.099-0.081-0.146  c-0.41-0.014-0.682,0.21-0.837,0.638C51.773,37.84,52.08,37.677,52.386,37.514z"></path></svg>