<svg height='300px' width='300px'  fill="#000000" xmlns="http://www.w3.org/2000/svg" xmlns:xlink="http://www.w3.org/1999/xlink" version="1.1" x="0px" y="0px" viewBox="-449 451 100 100" style="enable-background:new -449 451 100 100;" xml:space="preserve"><g><g><path d="M-373.6,518.5c-0.5,0-0.9-0.2-1.3-0.5l-19.2-15.6c-0.5-0.4-0.8-1-0.8-1.6s0.3-1.2,0.8-1.6l19.3-15.6    c0.7-0.6,1.8-0.6,2.5-0.1c0.8,0.6,1.1,1.5,0.8,2.4l-1.7,4.6l16.4-2.6l0,0c0.9-0.1,1.7,0.1,2.4,0.7c0.7,0.6,1,1.4,1,2.3v19.8    c0,0.9-0.4,1.7-1,2.3s-1.5,0.8-2.4,0.7l-16.4-2.6l1.7,4.6c0.3,0.9,0,1.9-0.8,2.4C-372.7,518.4-373.2,518.5-373.6,518.5z     M-391.4,500.8l15.8,12.8l-1.4-3.8c-0.1-0.2-0.1-0.4-0.1-0.5c0-0.5,0.1-0.9,0.5-1.2c0.3-0.3,0.8-0.5,1.3-0.4l18.9,3l0-19.8    l-18.9,3c-0.5,0.1-1-0.1-1.3-0.4s-0.5-0.8-0.4-1.3c0-0.1,0-0.2,0.1-0.3l1.4-3.8L-391.4,500.8z"></path></g><g><path d="M-424.9,518.5c-0.4,0-0.8-0.1-1.2-0.4c-0.8-0.6-1.1-1.5-0.7-2.4l1.7-4.6l-16.4,2.6c-0.9,0.1-1.7-0.1-2.4-0.7    c-0.7-0.6-1-1.4-1-2.3v-19.8c0-0.9,0.4-1.7,1-2.3c0.7-0.6,1.5-0.8,2.4-0.7l16.4,2.6l-1.7-4.6c-0.3-0.9,0-1.9,0.8-2.4    c0.8-0.6,1.8-0.5,2.5,0.1l19.3,15.6c0.5,0.4,0.8,1,0.8,1.6s-0.3,1.2-0.8,1.6l-19.2,15.6C-424,518.3-424.4,518.5-424.9,518.5z     M-422.9,507.7c0.4,0,0.8,0.1,1,0.4c0.3,0.3,0.5,0.8,0.5,1.3c0,0.1,0,0.3-0.1,0.5l-1.4,3.8l15.8-12.8L-423,488l1.4,3.9    c0,0.1,0.1,0.2,0.1,0.4c0.1,0.5-0.1,0.9-0.4,1.3c-0.3,0.4-0.8,0.5-1.3,0.4l-18.9-3l0,19.8l18.9-3    C-423.1,507.7-423,507.7-422.9,507.7z"></path></g></g><g><g><path d="M-399.2,496.6c-0.8,0-1.5-0.7-1.5-1.5v-33.6c0-0.8,0.7-1.5,1.5-1.5s1.5,0.7,1.5,1.5v33.6    C-397.7,495.9-398.4,496.6-399.2,496.6z"></path></g><g><path d="M-393.8,493.7c-0.2,0-0.5-0.1-0.7-0.2c-0.7-0.4-1-1.3-0.6-2l10.7-19.2c0.4-0.7,1.3-1,2-0.6c0.7,0.4,1,1.3,0.6,2    l-10.7,19.2C-392.7,493.4-393.3,493.7-393.8,493.7z"></path></g><g><path d="M-404.7,493.7c-0.5,0-1-0.3-1.3-0.8l-10.7-19.2c-0.4-0.7-0.1-1.6,0.6-2c0.7-0.4,1.6-0.1,2,0.6l10.7,19.2    c0.4,0.7,0.1,1.6-0.6,2C-404.2,493.7-404.5,493.7-404.7,493.7z"></path></g><g><g><path d="M-399.2,541.6c-0.8,0-1.5-0.7-1.5-1.5v-33.6c0-0.8,0.7-1.5,1.5-1.5s1.5,0.7,1.5,1.5v33.6     C-397.7,541-398.4,541.6-399.2,541.6z"></path></g><g><path d="M-415.4,530.1c-0.2,0-0.5-0.1-0.7-0.2c-0.7-0.4-1-1.3-0.6-2l10.7-19.2c0.4-0.7,1.3-1,2-0.6c0.7,0.4,1,1.3,0.6,2     l-10.7,19.2C-414.4,529.8-414.9,530.1-415.4,530.1z"></path></g><g><path d="M-383.1,530.1c-0.5,0-1-0.3-1.3-0.8l-10.7-19.2c-0.4-0.7-0.1-1.6,0.6-2c0.7-0.4,1.6-0.1,2,0.6l10.7,19.2     c0.4,0.7,0.1,1.6-0.6,2C-382.6,530.1-382.8,530.1-383.1,530.1z"></path></g></g></g></svg>