<?xml version="1.0" encoding="utf-8"?>
<!-- Svg Vector Icons : http://www.onlinewebfonts.com/icon -->
<!DOCTYPE svg PUBLIC "-//W3C//DTD SVG 1.1//EN" "http://www.w3.org/Graphics/SVG/1.1/DTD/svg11.dtd">
<svg version="1.1" xmlns="http://www.w3.org/2000/svg" xmlns:xlink="http://www.w3.org/1999/xlink" x="0px" y="0px" viewBox="0 0 1000 1000" enable-background="new 0 0 1000 1000" xml:space="preserve">
<metadata> Svg Vector Icons : http://www.onlinewebfonts.com/icon </metadata>
<g><g transform="translate(0.000000,511.000000) scale(0.100000,-0.100000)"><path d="M7138.6,4987.4c-131.6-47.7-188.3-93-313.1-242.8c-306.3-369.8-424.3-805.5-451.5-1685.9l-13.6-476.5l-476.5-4.5c-260.9-2.3-583.2-15.9-714.8-31.8c-1488.5-163.4-2321.2-919-2564-2325.8c-54.5-313.1-90.8-796.4-90.8-1182.2v-299.5l-537.8-11.3c-900.8-18.1-1257-120.3-1647.3-469.7C149.9-1903.6,100-2008,100-2207.7c0-324.5,206.5-533.2,531-533.2c167.9,0,251.9,34,392.5,156.6c61.3,49.9,122.5,93,136.1,93c15.9,0,301.8-274.6,637.6-610.4c680.7-680.7,639.9-614.9,483.3-794.2c-93-108.9-133.9-217.8-133.9-365.3c0-317.7,215.6-531,537.8-533.2c133.9,0,177,9.1,265.5,61.3c272.3,161.1,503.7,592.2,610.4,1134.5c43.1,222.4,88.5,757.9,88.5,1061.9v170.2l472,2.3c540,4.5,837.3,34,1207.1,113.4c1071,238.3,1740.3,884.9,2005.8,1940C7429,63.6,7463,397.1,7467.6,957.6l4.6,510.5l487.8,13.6c871.3,27.2,1307,145.2,1676.8,451.5c197.4,163.4,263.2,288.2,263.2,487.8c-2.3,322.2-215.6,537.8-533.2,537.8c-154.3,0-249.6-38.6-397.1-161.1c-61.3-49.9-118-93-124.8-93c-6.8,0-292.7,279.1-633.1,621.7l-624,624l61.3,74.9c163.4,199.7,186.1,245,192.9,415.2c9.1,179.3-18.1,272.3-120.2,392.5C7594.7,4985.2,7322.4,5057.8,7138.6,4987.4z M7424.5,4608.5c90.8-70.3,81.7-174.7-31.8-322.2c-272.3-363-340.4-839.5-297.2-2055.8c40.8-1157.2,29.5-1667.7-56.7-2162.4c-108.9-642.1-392.6-1191.2-771.5-1495.3c-122.5-99.9-376.7-256.4-453.8-279.1c-49.9-15.9-49.9-13.6-15.9,81.7c20.4,61.3,29.5,140.7,22.7,213.3l-11.3,113.4l104.4,65.8c324.5,204.2,580.9,587.7,698.9,1041.5C6743.8,317.7,6771,785.2,6737,1967.3c-36.3,1270.7-4.5,1706.3,156.6,2151c77.2,211,177,372.1,285.9,469.7C7272.4,4667.5,7340.5,4674.3,7424.5,4608.5z M8633.9,2344c31.8-129.3-81.7-251.9-211-220.1c-43.1,11.3-213.3,163.4-512.8,462.9l-449.2,444.7v140.7c0,77.1,6.8,188.3,13.6,247.3l15.9,106.7l565-565C8366.1,2652.6,8624.8,2373.5,8633.9,2344z M9500.7,2532.3c77.1-97.6,61.3-163.4-68.1-288.2c-104.4-99.8-340.4-233.7-492.4-276.8l-49.9-13.6l49.9,95.3c27.3,52.2,54.5,149.8,59,215.6c9.1,113.5,15.9,122.5,118,188.3c59,38.6,120.2,84,136.1,104.4c15.9,20.4,65.8,34,113.5,34C9434.8,2591.3,9464.3,2577.7,9500.7,2532.3z M6219.6,2212.4l152.1-13.6v-174.7v-172.5l-528.7-4.5l-528.7-4.5l-90.8,93c-47.7,52.2-127.1,122.5-172.5,156.6l-86.2,63.5l131.6,15.9C5414.1,2214.7,5990.4,2235.1,6219.6,2212.4z M7971.3,2024.1l181.5-181.5h-347.2h-344.9v181.5v181.5h165.6h163.4L7971.3,2024.1z M4277.3,1883.4c-27.2-52.2-52.2-154.3-56.7-226.9l-9.1-129.3l-142.9-93c-310.9-201.9-540-535.5-667.1-971.1c-143-490.1-177-993.8-143-2212.3c34-1254.8,2.3-1713.1-147.5-2132.9c-108.9-304.1-301.8-560.4-424.3-560.4c-29.5,0-79.4,20.4-113.5,47.6c-90.8,70.4-81.7,174.7,31.8,322.2c283.6,378.9,335.8,776,292.7,2273.6C2868.2-764.6,2881.8-310.8,2959,143c113.5,660.3,392.5,1200.3,782.8,1506.6c111.2,86.2,533.2,329,574.1,329C4320.4,1978.7,4302.3,1935.6,4277.3,1883.4z M5593.3,1064.3l755.6-753.3l-34-192.9c-20.4-106.6-45.4-199.7-54.5-208.8c-6.8-9.1-390.3,358.5-848.6,816.9c-755.6,755.6-832.7,841.8-832.7,907.6c0,99.8,86.2,186.1,186.1,186.1C4831,1819.8,4910.4,1747.2,5593.3,1064.3z M6383,1191.3c24.9-453.8,36.3-451.5-363-52.2l-340.4,340.4h344.9h342.6L6383,1191.3z M5259.8,356.3l848.6-848.6l-34-61.3c-52.2-102.1-270-324.5-376.7-388l-102.1-59l-850.9,850.9l-850.9,850.9l38.6,74.9c54.5,106.6,231.5,290.4,349.4,367.6c56.7,34,106.7,63.5,115.7,63.5C4404.4,1207.2,4792.4,823.7,5259.8,356.3z M5464-1443c0-99.8-86.2-186.1-186.1-186.1c-65.8,0-147.5,72.6-848.6,773.7L3655.6-81.6l29.5,161.1c15.9,90.8,36.3,188.3,43.1,220.1c13.6,49.9,95.3-27.2,875.9-807.8C5382.3-1288.7,5464-1377.2,5464-1443z M3977.8-925.7l340.4-340.4h-358.5h-356.2v340.4c0,188.3,6.8,340.4,18.1,340.4C3630.6-585.3,3791.7-737.4,3977.8-925.7z M2532.4-1792.5l6.8-172.4l-154.3-9.1l-154.3-9.1l-177,170.2l-177,172.4l108.9,13.6c59,6.8,206.5,13.6,324.5,11.3l215.6-2.3L2532.4-1792.5z M5017-1926.3c13.6-2.3-13.6-11.3-63.5-22.7c-158.8-31.8-921.2-68.1-1127.7-52.2l-199.7,15.9v181.5v181.5l188.3-11.3c102.1-6.8,333.6-6.8,515.1,2.3l329,13.6l165.6-152C4912.6-1856,5001.1-1926.3,5017-1926.3z M1000.8-1826.5c-20.4-47.6-36.3-145.2-34-215.6v-127.1l-133.9-104.4c-163.4-127.1-260.9-138.4-335.8-45.4c-27.2,34-47.7,86.2-47.7,118c0,86.2,215.6,285.9,415.2,381.2c88.5,43.1,163.4,77.1,167.9,77.1C1034.8-1742.5,1021.2-1781.1,1000.8-1826.5z M2065-2348.4l494.6-494.6l-11.3-170.2c-25-322.2,34-349.4-624,306.3c-322.2,322.2-592.2,610.4-601.3,639.9c-25,102.1,68.1,208.8,179.3,211C1561.3-1856,1642.9-1928.6,2065-2348.4z"/></g></g>
</svg>